<svg width="152" height="109" viewBox="0 0 152 109" fill="none" xmlns="http://www.w3.org/2000/svg">
<path d="M115.295 28.357L128.24 35.8305L128.24 50.7776L115.295 58.2511L102.351 50.7776L102.351 35.8305L115.295 28.357Z" stroke="#F4CE69" stroke-width="0.6"/>
<path d="M102.508 20.974L115.452 28.4475L115.452 43.3946L102.508 50.8682L89.563 43.3946L89.563 28.4475L102.508 20.974Z" stroke="#F4CE69" stroke-width="0.6"/>
<path d="M89.7198 13.5909L102.664 21.0645L102.664 36.0116L89.7198 43.4851L76.7752 36.0116L76.7752 21.0645L89.7198 13.5909Z" stroke="#F4CE69" stroke-width="0.6"/>
<path d="M102.508 35.7401L115.452 43.2137L115.452 58.1607L102.508 65.6343L89.563 58.1607L89.563 43.2137L102.508 35.7401Z" stroke="#F4CE69" stroke-width="0.6"/>
<path d="M89.7197 43.1232L102.664 50.5967L102.664 65.5438L89.7197 73.0173L76.7752 65.5438L76.7752 50.5967L89.7197 43.1232Z" stroke="#F4CE69" stroke-width="0.6"/>
<path d="M76.932 50.5062L89.8765 57.9798L89.8765 72.9268L76.9319 80.4004L63.9874 72.9268L63.9874 57.9798L76.932 50.5062Z" stroke="#F4CE69" stroke-width="0.6"/>
<path d="M89.7197 57.8893L102.664 65.3628L102.664 80.3099L89.7197 87.7834L76.7752 80.3099L76.7752 65.3628L89.7197 57.8893Z" stroke="#F4CE69" stroke-width="0.6"/>
<path d="M115.752 72.5727L115.752 87.8662L102.507 95.5129L89.2629 87.8662L89.2629 72.5727L102.507 64.9259L115.752 72.5727Z" fill="url(#paint0_linear_14_20)"/>
<path d="M28.8358 35.7282L41.8643 28.2062L54.8929 35.7282V50.7723L41.8643 58.2943L28.8358 50.7723V35.7282Z" stroke="#D59534" stroke-width="0.6"/>
<path d="M28.8358 50.588L41.8643 43.066L54.8929 50.588V65.632L41.8643 73.1541L28.8358 65.632V50.588Z" stroke="#D59534" stroke-width="0.6"/>
<path d="M28.8358 65.4477L41.8643 57.9257L54.8929 65.4477V80.4918L41.8643 88.0138L28.8358 80.4918V65.4477Z" stroke="#D59534" stroke-width="0.6"/>
<path d="M16.0989 72.8776L29.1274 65.3556L42.1559 72.8776V87.9217L29.1274 95.4437L16.0989 87.9217V72.8776Z" stroke="#D59534" stroke-width="0.6"/>
<path d="M3.36193 65.4477L16.3905 57.9257L29.419 65.4477V80.4918L16.3905 88.0138L3.36193 80.4918V65.4477Z" stroke="#D59534" stroke-width="0.6"/>
<path d="M41.8643 13L55.1929 20.6952V36.0857L41.8643 43.7809L28.5358 36.0857V20.6952L41.8643 13Z" fill="url(#paint1_linear_14_20)"/>
<defs>
<linearGradient id="paint0_linear_14_20" x1="116.48" y1="88.0666" x2="89.534" y2="72.5095" gradientUnits="userSpaceOnUse">
<stop stop-color="#D59534"/>
<stop offset="1" stop-color="#F4CE69"/>
</linearGradient>
<linearGradient id="paint1_linear_14_20" x1="41.8643" y1="13" x2="41.8643" y2="43.7809" gradientUnits="userSpaceOnUse">
<stop stop-color="#F4CE69"/>
<stop offset="1" stop-color="#D59534"/>
</linearGradient>
</defs>
</svg>
