<?xml version="1.0" encoding="utf-8"?>
<!-- Generator: Adobe Illustrator 26.0.1, SVG Export Plug-In . SVG Version: 6.00 Build 0)  -->
<svg version="1.1" id="Calque_1" xmlns="http://www.w3.org/2000/svg" xmlns:xlink="http://www.w3.org/1999/xlink" x="0px" y="0px"
	 viewBox="0 0 838.74 496.55" style="enable-background:new 0 0 838.74 496.55;" xml:space="preserve">
<style type="text/css">
	.st0{fill:url(#SVGID_1_);}
</style>
<g>
	<linearGradient id="SVGID_1_" gradientUnits="userSpaceOnUse" x1="0" y1="248.2755" x2="838.7407" y2="248.2755">
		<stop  offset="0" style="stop-color:#F3D26B"/>
		<stop  offset="0.757" style="stop-color:#C1791A"/>
	</linearGradient>
	<path class="st0" d="M838.68,0c0,0-33.94,80.02-110.35,91.95c-117.7,18.39-308.96,84.6-308.96,106.67
		c0-22.07-191.26-88.28-308.96-106.67C34,80.02,0.06,0,0.06,0c-1.84,82.76,38.62,115.86,75.4,137.93
		c24.28,14.57,52.56,30.73,79.03,46.39c-24.91,24.08-40.41,57.84-40.41,95.22c0,73.12,59.29,132.41,132.41,132.41
		c43.73,0,82.5-21.2,106.62-53.88c9.08,32.33,12.92,63.08,12.92,63.08l53.33,75.4l53.33-75.4c0,0,3.84-30.75,12.92-63.08
		c24.11,32.68,62.89,53.88,106.62,53.88c73.12,0,132.41-59.29,132.41-132.41c0-37.38-15.49-71.14-40.41-95.22
		c26.47-15.65,54.75-31.82,79.03-46.39C800.06,115.86,840.52,82.76,838.68,0z M246.5,397.24c-64.99,0-117.7-52.71-117.7-117.7
		c0-34.67,15-65.84,38.86-87.38c8.92,5.35,17.51,10.6,25.51,15.66c9.67,6.11,22.35,14.1,36.23,23.14
		C209.36,238.01,195,257.1,195,279.54c0,28.44,23.05,51.49,51.49,51.49c28.44,0,51.49-23.05,51.49-51.49c0-0.18,0-0.36,0-0.54
		c20.69,16.15,37.16,31.53,42.3,42.84c2.62,5.76,5.01,11.9,7.2,18.18C326.91,374.3,289.38,397.24,246.5,397.24z M709.94,279.54
		c0,64.99-52.71,117.7-117.7,117.7c-42.88,0-80.41-22.94-100.99-57.22c2.18-6.28,4.58-12.42,7.2-18.18
		c5.14-11.31,21.61-26.69,42.3-42.84c0,0.18,0,0.36,0,0.54c0,28.44,23.05,51.49,51.49,51.49c28.44,0,51.49-23.05,51.49-51.49
		c0-22.44-14.36-41.53-34.39-48.59c13.88-9.04,26.56-17.03,36.23-23.14c8.01-5.06,16.59-10.31,25.51-15.66
		C694.95,213.7,709.94,244.87,709.94,279.54z"/>
</g>
</svg>
