<?xml version="1.0" encoding="utf-8"?>
<!-- Generator: Adobe Illustrator 26.0.1, SVG Export Plug-In . SVG Version: 6.00 Build 0)  -->
<svg version="1.1" id="Calque_1" xmlns="http://www.w3.org/2000/svg" xmlns:xlink="http://www.w3.org/1999/xlink" x="0px" y="0px"
	 viewBox="0 0 588.91 349.22" style="enable-background:new 0 0 588.91 349.22;" xml:space="preserve">
<style type="text/css">
	.st0{fill:url(#SVGID_1_);}
</style>
<g>
	<linearGradient id="SVGID_1_" gradientUnits="userSpaceOnUse" x1="0" y1="174.6095" x2="588.9076" y2="174.6095">
		<stop  offset="0" style="stop-color:#F3D26B"/>
		<stop  offset="0.757" style="stop-color:#C1791A"/>
	</linearGradient>
	<path class="st0" d="M96.79,123.96c-2.17-1.3-4.18-2.5-6.2-3.7c-19.22-11.45-38.21-23.25-55.32-37.78
		C24.83,73.6,15.33,63.87,8.42,51.88c-5.55-9.62-8.58-19.93-8.42-31.12C0.1,14.53,0.02,8.3,0.03,2.07c0-0.63,0-1.26,0.4-2.01
		C1.59,1.84,2.75,3.63,3.92,5.4c4.74,7.14,8.86,14.71,14.89,20.97c12.45,12.91,27.08,22.68,43.07,30.6
		c14.85,7.35,30.7,11.75,46.64,15.86c32.56,8.4,65.18,16.57,97.66,25.25c19.57,5.23,38.85,11.51,57.35,19.88
		c10.13,4.58,19.91,9.75,28.07,17.5c0.9,0.85,1.71,1.79,2.59,2.72c0.35-0.18,0.62-0.24,0.78-0.41c7.23-7.78,16.21-13.02,25.63-17.59
		c17.35-8.41,35.62-14.33,54.04-19.81c30.8-9.17,62.07-16.51,93.21-24.34c15.89-3.99,31.88-7.71,47.15-13.8
		c19.05-7.61,36.39-17.98,51.39-32.13c7.06-6.66,12.27-14.64,17.41-22.72c1.5-2.35,3.05-4.66,4.83-7.37c0.12,0.77,0.2,1.07,0.2,1.36
		c-0.01,7.54,0.14,15.09-0.07,22.63c-0.37,13.11-5.42,24.57-12.96,35.06c-7.8,10.85-17.5,19.84-27.91,28.1
		c-16.27,12.92-33.9,23.8-51.74,34.34c-1.29,0.76-2.56,1.55-4,2.43c20.53,25.15,27.76,53.4,19.59,84.9
		c-5.71,22.01-18.49,39.34-37.22,52.17c-13.77,9.43-29.07,14.65-45.78,15.62c-16.67,0.97-32.69-1.69-47.84-8.83
		c-15.18-7.15-27-18.1-35.68-32.5c-0.22,0.01-0.45,0.02-0.67,0.03c-0.99,3.61-2.28,7.17-2.89,10.84c-0.66,3.92-0.87,7.94-0.94,11.93
		c-0.14,7.74-0.01,15.48-0.09,23.22c-0.01,0.97-0.34,2.1-0.89,2.89c-14.72,21.23-29.48,42.43-44.25,63.63
		c-0.29,0.42-0.64,0.8-1.11,1.4c-0.76-1.05-1.44-1.98-2.1-2.92c-14.39-20.66-28.8-41.31-43.14-62c-0.62-0.89-0.95-2.16-0.96-3.26
		c-0.11-9.64,0.04-19.29-0.22-28.92c-0.16-5.79-1.66-11.37-4.1-17.05c-17.98,28.61-44.46,41.22-77.18,41.73
		c-22.19,0.35-42.11-6.73-59.2-20.93c-19.85-16.5-31.19-37.75-33.28-63.56C72.15,166.54,80.1,143.87,96.79,123.96z M200.31,186.69
		c-3.91,17.79-17.9,27.47-31.04,28.42c-14.96,1.08-26.9-4.79-33.76-18.11c-8.94-17.34-4.31-32.42,10.11-45
		c-0.42-0.3-0.77-0.59-1.16-0.81c-11.45-6.52-22.91-13.02-34.33-19.6c-1.27-0.73-1.84-0.26-2.59,0.61
		c-16.65,19.34-23.72,41.58-18.92,66.8c5.35,28.14,21.82,47.73,48.12,58.87c14.46,6.12,29.61,6.99,45,4.3
		c24.22-4.23,42.25-16.9,53.28-39.12c0.75-1.51,0.67-2.52-0.35-3.86c-7.26-9.49-15.83-17.65-25.06-25.17
		C206.62,191.59,203.57,189.25,200.31,186.69z M388.56,186.7c-2.95,2.31-5.69,4.41-8.38,6.58c-9.67,7.8-18.67,16.28-26.2,26.24
		c-0.7,0.92-0.99,1.68-0.44,2.83c3.02,6.23,6.67,12.05,11.29,17.21c10.03,11.21,22.55,18.19,37.14,21.56
		c15.2,3.51,30.32,3.46,45.23-1.41c34.51-11.26,56.72-44.06,54.27-80.3c-1.23-18.09-8.25-33.84-20.27-47.4
		c-0.79-0.89-1.39-1.05-2.47-0.43c-11.37,6.53-22.77,13.01-34.15,19.51c-0.47,0.27-0.89,0.63-1.37,0.99
		c16.19,12.55,16.68,30.83,11.7,42.18c-5.88,13.41-19,21.56-33.75,20.98C407.85,214.73,392.59,205.26,388.56,186.7z"/>
</g>
</svg>
